<svg xmlns="http://www.w3.org/2000/svg" viewBox="0 0 155 40">
	<path
	d="m35.99 1c-.79-.01-1.59.01-2.39.05-10.68.63-22.53 6.59-22.5 17.77.02 11.18 11.89 17.2 24.34 17.2h.01c.03 0 .06 0 .09 0h23.1c1.79.03 1.79-2.67 0-2.64h-23.1c-9.12-.35-20.48-5.29-20.48-14.53 0-9.25 11.1-14.82 18.69-15.1 9.22-.37 21.39 3.29 23.45 13.1.36 1.73 3 1.26 2.6-.45-2.62-11.34-14.34-15.1-23.81-15.31m1.03 9.62l-6.16 7.1-2-3-7.29 8.58c-1.2 1.35.88 3.11 2 1.71l5-5.91 3.86 5.79c.97 1.5 3.21.01 2.2-1.47l-2.28-3.42 4.32-4.95 6.32 9.81c.93 1.6 3.29.07 2.22-1.43l-2.55-3.96 2.03-2.54 5.51 7.96c.99 1.53 3.26-.04 2.17-1.5l-7.54-10.89-3.69 4.62z"
	style="fill:#fff;"/>
	<path
	d="m82.92 9.94q-.37 1.99-1.8 3.15-1.42 1.16-3.42 1.11-1.19-.03-2.07-.58-.89-.56-1.38-1.61-.49-1.05-.54-2.33-.04-.72.06-1.41l.15-1.05q.41-2.88 2-4.54 1.62-1.67 3.93-1.63 1.8.04 2.86 1.17 1.05 1.13 1.12 3.13h-1.64q-.11-2.69-2.11-2.9l-.29-.02q-1.66-.04-2.78 1.24-1.11 1.27-1.43 3.49l-.19 1.33-.05.77q-.05 1.62.57 2.58.63.95 1.87.98 1.34.04 2.21-.64.88-.69 1.34-2.21l1.6-.03"
	style="fill:#ffdc00"/>
	<path
	d="m151.8 4.33c-.77-.02-1.48.17-2.14.57-.66.39-1.22.98-1.69 1.76-.46.78-.74 1.64-.84 2.58l-.04.38c-.11 1.32.18 2.41.84 3.26.67.85 1.59 1.29 2.78 1.31.77.01 1.47-.14 2.1-.47.63-.33 1.15-.78 1.55-1.35l-.91-.77c-.8.87-1.66 1.29-2.6 1.27-.77-.02-1.36-.34-1.75-.94-.39-.6-.53-1.34-.42-2.2h6.21l.1-.73c.04-.38.05-.76.04-1.14-.05-1.07-.36-1.92-.91-2.55-.56-.63-1.32-.95-2.3-.97m-66.6.18l-.23 1.32h3.03l-1.42 8.19h1.58l1.42-8.19h3.09l.23-1.32h-7.72m9.47 0l-1.65 9.51h1.64l5.38-6.83-1.2 6.83h1.59l1.65-9.51h-1.64l-5.38 6.84 1.19-6.84h-1.58m11.35 0l-.86 4.17-.16.9c-.19 1.02-.46 1.77-.83 2.24-.36.47-.83.72-1.4.76l-.34.02-.16 1.42h.69c.87-.02 1.59-.33 2.14-.93.56-.6.99-1.62 1.3-3.03l.19-.95.71-3.25h3.13l-1.42 8.17h1.6l1.65-9.51h-6.25m9 0l-1.65 9.51h4c1.11 0 2-.29 2.72-.88.71-.59 1.1-1.37 1.17-2.34.06-.9-.19-1.62-.76-2.16-.57-.55-1.37-.83-2.41-.84l-2.08-.02.58-3.28h-1.59m9.55 0l-1.65 9.51h1.59l.71-4.06h4.23l-.71 4.06h1.59l1.65-9.51h-1.59l-.72 4.12h-4.22l.71-4.12h-1.59m10.17 0l-1.65 9.51h4c1.11 0 2-.29 2.72-.88.71-.59 1.1-1.37 1.17-2.34.06-.9-.19-1.62-.76-2.16-.57-.55-1.37-.83-2.41-.84l-2.08-.02.58-3.28h-1.59m9.1 0l-1.65 9.51h1.59l1.65-9.51h-1.59m7.89 1.15c.62.02 1.09.27 1.42.77.33.49.45 1.1.36 1.84l-.04.14h-4.62c.29-.91.67-1.6 1.16-2.07.49-.46 1.07-.69 1.72-.67m-35.89 3.46h2.44c.51.02.89.19 1.14.51.26.31.35.72.29 1.23-.08.55-.31.99-.71 1.33-.39.33-.9.5-1.53.51h-2.25l.62-3.58m19.72 0h2.44c.51.02.89.19 1.14.51.26.31.35.72.29 1.23-.08.55-.31.99-.71 1.33-.39.33-.9.5-1.53.51h-2.25l.62-3.58m-36.46 17.22c-.77-.02-1.48.17-2.14.57-.66.39-1.22.98-1.69 1.76-.46.78-.73 1.64-.83 2.58l-.04.38c-.11 1.32.18 2.41.84 3.26.67.85 1.59 1.29 2.78 1.31.77.01 1.47-.14 2.1-.47.63-.33 1.15-.78 1.55-1.35l-.91-.77c-.8.87-1.66 1.29-2.6 1.27-.77-.02-1.36-.34-1.75-.94-.39-.6-.53-1.34-.42-2.2h6.21l.1-.73c.04-.38.05-.76.04-1.14-.05-1.07-.36-1.92-.91-2.55-.56-.63-1.32-.95-2.3-.97m9.89 0c-1.1-.02-2.04.39-2.82 1.23l.18-1.06h-1.44l-2.29 13.17h1.59l.85-4.59c.59.72 1.43 1.09 2.53 1.12.73.02 1.39-.16 1.99-.54.6-.39 1.1-.97 1.5-1.74.4-.77.66-1.64.78-2.61l.03-.19c.04-.35.05-.71.04-1.09-.03-1.14-.3-2.04-.81-2.69-.51-.65-1.22-.99-2.13-1m-32.45.18l-.74 3.57c-.19 1.02-.48 1.9-.88 2.64-.4.74-.92 1.41-1.57 2l-.68-.03-.73 4.12h1.59l.48-2.79h6.43l-.48 2.79h1.58l.72-4.12h-1.19l1.42-8.18h-5.96m9.11 0l-1.65 9.51h4.43c1.13-.01 2.03-.26 2.71-.75.67-.49 1.03-1.17 1.06-2 .02-.49-.1-.93-.36-1.3-.26-.38-.63-.64-1.1-.78 1.18-.5 1.8-1.21 1.86-2.12.06-.82-.23-1.44-.87-1.87-.63-.43-1.54-.65-2.72-.66h-3.36m29.3 0l-1.65 9.51h1.64l5.38-6.83-1.2 6.83h1.59l1.65-9.51h-1.64l-5.38 6.84 1.19-6.84h-1.58m-15.9 1.15c.62.02 1.09.27 1.41.77.33.49.46 1.1.36 1.84l-.04.14h-4.62c.29-.91.67-1.6 1.16-2.07.49-.46 1.07-.69 1.72-.67m9.42.04c.62.02 1.08.26 1.41.72.33.45.49 1.1.49 1.96l-.04.74c-.18 1.25-.54 2.19-1.1 2.83-.55.63-1.22.94-2 .92-.93-.02-1.57-.46-1.92-1.3l.8-4.56c.67-.9 1.46-1.33 2.38-1.31m-21.45.12h2.12c1.38.04 2 .48 1.89 1.31-.06.46-.31.8-.74 1.04-.43.24-1.03.36-1.79.36h-1.95l.47-2.71m-9.18.18h2.82l-1.16 6.68-4.24.03c.93-.91 1.59-2.19 1.99-3.85l.6-2.86m8.48 3.83h2.7c.57.02.99.14 1.27.38.29.23.4.55.34.98-.06.47-.3.85-.71 1.12-.4.26-.93.4-1.59.4h-2.51l.5-2.87"
	style="fill:#fff"/>
</svg>
