<svg xmlns="http://www.w3.org/2000/svg" viewBox="0 0 155 40"><path d="m35.986 1c-.79-.01-1.589.009-2.392.054-10.682.626-22.526 6.589-22.501 17.766.025 11.176 11.892 17.18 24.341 17.17h.01c.031.002.062.003.093.003h23.12c1.787.025 1.787-2.668 0-2.643h-23.12c-9.123-.347-20.481-5.285-20.481-14.535 0-9.249 11.06-14.823 18.687-15.13 9.224-.366 21.395 3.291 23.446 13.07.362 1.725 3 1.263 2.604-.454-2.621-11.338-14.338-15.11-23.807-15.314m1.03 9.624l-6.163 7.05-2.01-3.01-7.285 8.584c-1.198 1.348.882 3.112 2.02 1.708l5.02-5.91 3.863 5.789c.969 1.505 3.215.008 2.199-1.466l-2.284-3.419 4.323-4.947 6.323 9.815c.926 1.597 3.29.074 2.219-1.43l-2.55-3.959 2.031-2.539 5.512 7.964c.986 1.53 3.256-.039 2.173-1.502l-7.536-10.886-3.69 4.617z" shape-rendering="auto" mix-blend-mode="normal" color-interpolation-filters="linearRGB" isolation="auto" white-space="normal" fill="#fff" solid-opacity="1" image-rendering="auto" solid-color="#000000" color="#000" fill-rule="evenodd" color-rendering="auto" color-interpolation="sRGB"/><g font-family="Roboto" text-align="start" font-style="italic" font-size="18"><text x="72.65" y="14.01"><tspan x="72.65" y="14.01"><tspan fill="#ffdc00">С</tspan><tspan fill="#fff">тильные</tspan></tspan></text><text y="36.02" x="72.916" fill="#fff"><tspan y="36.02" x="72.916">двери</tspan></text></g></svg>