<svg xmlns="http://www.w3.org/2000/svg" viewBox="0 0 694.35 341.19"><g transform="translate(-1.398-397.54)" fill="#0079c2"><path d="m218.57 618.42h43.17v14.1h-20.535v99.1h-22.633v-113.21"/><path d="m287.33 689.13l3.879-56.6h1.299l3.879 56.6h-9.06m-25.06 42.5h22.16l2.097-30.07h10.671l2.106 30.07h22.15l-11.803-113.21h-35.577l-11.803 113.21"/><path d="m353.86 692.01v21.343c0 2.877 2.227 3.712 3.526 3.712 2.134 0 3.619-1.763 3.619-3.712v-26.354c0-3.526-.65-7.424-9.09-7.424h-9.187v-12.434h9.558c6.403 0 8.723-1.485 8.723-8.444v-22.456c0-1.949-1.485-3.712-3.619-3.712-1.299 0-3.526.742-3.526 3.712v18.466h-22.642v-16.05c0-7.888.928-20.229 16.796-20.229h18.745c15.868 0 16.889 12.342 16.889 20.229v18.09c0 12.342-8.63 15.682-15.404 15.404v1.114c15.218-.371 15.404 11.321 15.404 15.311v22.827c0 7.98-1.021 20.229-16.889 20.229h-18.745c-15.868 0-16.796-12.249-16.796-20.229v-19.394h22.642"/><path d="m398.49 618.42h52.43v113.21h-22.642v-99.1h-7.145v99.1h-22.642v-113.21"/><path d="m488.41 680.69v-48.16h2.969c2.413 0 4.176 2.041 4.176 5.66v36.839c0 3.619-1.763 5.66-4.176 5.66h-2.969m-22.642 50.944h22.642v-38.51h12.991c15.775 0 16.796-12.249 16.796-20.229v-34.24c0-7.888-1.021-20.229-16.796-20.229h-35.633v113.21"/><path d="m562.83 713.35c0 1.949-1.485 3.712-3.619 3.712-1.299 0-3.526-.835-3.526-3.712v-77.11c0-2.969 2.227-3.712 3.526-3.712 2.134 0 3.619 1.763 3.619 3.712v77.11m-29.787-1.949c0 7.98 1.021 20.229 16.796 20.229h18.837c15.775 0 16.796-12.249 16.796-20.229v-72.75c0-7.888-1.021-20.229-16.796-20.229h-18.837c-15.775 0-16.796 12.342-16.796 20.229v72.75"/><path d="m659.15 618.42h29.509v113.21h-22.642v-70.988h-.835l-11.692 70.988h-18.09l-11.599-70.988h-.835v70.988h-22.642v-113.21h29.416l14.754 79.62 14.662-79.62"/><path d="m189.22 463.64c-6.932-30.344-24.303-55.03-26.697-59.02-3.786 5.66-17.64 27.467-24.683 51.594-7.693 27-8.825 50.944-6.171 74.42 2.635 23.57 12.592 47.789 12.592 47.789 5.289 12.62 13.214 26.26 18.373 32.942 7.563-9.836 24.943-39.16 30.362-77.39 3.02-21.343 3.146-39.994-3.777-70.34m-26.697 140.12c-3.406-6.403-8.695-18.559-9.196-37.489-.13-18.19 7.173-33.87 9.307-37.12 1.902 3.248 8.194 16.889 8.945 35.54.51 18.19-5.54 32.571-9.06 39.07m24.683-88.62c-.26 11.599-1.642 23.848-3.406 31.18.631-12.62-.882-30.344-3.777-44.26-2.895-13.826-11.09-37.03-17.631-47.696-6.04 10.207-13.483 30.25-17.38 47.604-3.916 17.353-4.03 38.42-4.03 44.727-1.039-5.289-3.638-24.312-2.904-43.34.612-15.682 4.287-31.921 6.301-39.34 7.683-24.776 16.378-40.644 18.01-43.15 1.633 2.505 12.583 22.09 18.262 42.593 5.651 20.508 6.793 40.18 6.551 51.687"/><path d="m174.28 618.42h-52.698v35.35c.046 0 .084-.093.13-.093 12.416-12.434 32.552-12.434 44.978 0 12.416 12.342 12.416 32.478 0 44.913-.056.093-.111.093-.167.186-.065 0-.13.093-.186.186-12.388 12.249-28.571 18.373-44.755 18.373-16.258 0-32.515-6.124-44.913-18.559-21.862-21.807-24.451-55.677-7.786-80.36 2.246-3.341 4.835-6.496 7.786-9.465 12.397-12.434 28.655-18.559 44.913-18.559v-85c-62.47 0-113.11 50.573-113.11 113.02 0 62.45 50.638 113.12 113.11 113.12 32.571 0 61.913-13.826 82.55-35.819v-77.3h-29.852"/></g></svg>